<svg xmlns="http://www.w3.org/2000/svg" viewBox="0 0 2900 2300" width="2900px" height="2300px"><defs><style>.a,.b,.c,.f,.g{fill:none;stroke-linecap:round;stroke-linejoin:round;}.a{stroke:#36f;}.a,.b,.f,.g{stroke-width:30px;}.b{stroke:#3c6;}.c{stroke:#000;stroke-width:20px;}.d{fill:#36f;}.e{fill:#3c6;}.f{stroke:#c0c;}.g{stroke:#f33;}.h{fill:#c0c;}.i{fill:#f33;}</style></defs><title>Druck-Volumen-Diagramm (universaldenker.org)</title><line class="a" x1="325.76" y1="566.02" x2="2408.26" y2="566.02"/><line class="b" x1="800.1" y1="162.9" x2="800.1" y2="1962"/><path d="M33.9,232.42a22.11,22.11,0,0,1,.76-3.54c1.52-5.31,1.26-5.56,6.32-5.56h1.52c5.81,0,12.38-.51,15.16-.76,2.53-.5,3.79-1.26,4.8-3C63.22,217.76,98.1,79.25,98.1,77.74c0-1-.25-1.77-1-1.77-1.26-.51-6.57-1-13.4-1.26H75.86c-1.77-1.77-2.27-1.26-1-6.82,1-3.54,1-3.29,2.53-4.8H162.8c34.88,0,55.86-.25,68.49-.25,19,0,19,.5,19,2.78a11.39,11.39,0,0,1-.51,3.54c-1.52,5.31-1.26,5.56-6.32,5.56h-1.52c-5.81,0-12.38.5-15.17.76-2.53.51-3.79,1.26-4.8,3-.76,1.77-35.64,140.27-35.64,141.79,0,1,.25,1.77,1,1.77,1.26.5,6.57,1,13.65,1.26h7.83c1.77,2.53,2,1.77.76,6.82-1,3.54-1,3.29-2.53,4.8h-3.79c-9.35-.51-21.74-.51-33.87-.51-19.71,0-29.57.25-32.86.25-3,0-4.3-.5-4.3-2.27a12.68,12.68,0,0,1,.76-3.54c1.52-5.31,1.26-5.56,6.32-5.56h1.52c5.81,0,12.38-.51,15.16-.76,2.53-.5,3.79-1.26,4.8-3,2-3.79,35.89-143.56,36.65-144.32,0-.5-1.77-.5-36.65-.5H124.13C123.88,75.46,88,219,88,220c0,2.27.25,2.78,14.66,3.29h7.84c1.77,2.53,2,1.77.76,6.82-1,3.54-1,3.29-2.53,4.8h-3.79c-9.35-.51-21.74-.51-33.87-.51-19.71,0-29.57.25-32.86.25C36.18,234.69,33.9,234.69,33.9,232.42Z"/><polyline class="c" points="308.6 180.36 308.6 1971.97 2728.6 1971.97"/><polygon points="256.75 219.68 308.6 197.65 360.44 219.68 308.6 96.78 256.75 219.68"/><polygon points="2689.28 2023.81 2711.3 1971.97 2689.28 1920.13 2812.17 1971.97 2689.28 2023.81"/><path class="d" d="M1343.48,387.08h-20.7V368h20.7Zm-1.17,127.34h-18.36V405.34h18.36Z"/><path class="d" d="M1456.56,483q0,14.94-12.35,24.51t-33.74,9.57a80.92,80.92,0,0,1-22.22-2.88,98.83,98.83,0,0,1-16.94-6.3V487.27h1a73.63,73.63,0,0,0,19.34,10.4,59.82,59.82,0,0,0,20.41,3.86q12.11,0,18.95-3.91t6.84-12.3q0-6.45-3.71-9.77t-14.26-5.66q-3.91-.88-10.21-2.05t-11.47-2.54q-14.36-3.81-20.36-11.18t-6-18.12a29.63,29.63,0,0,1,2.78-12.7,30.67,30.67,0,0,1,8.45-10.64,40.46,40.46,0,0,1,13.92-7.28,62.2,62.2,0,0,1,18.9-2.69,84.89,84.89,0,0,1,19.78,2.39,74.68,74.68,0,0,1,16.65,5.81v19.63h-1a65.73,65.73,0,0,0-17.09-8.74,58.84,58.84,0,0,0-19.73-3.56q-10.06,0-17,3.86t-6.93,11.47q0,6.74,4.2,10.16t13.28,5.57q5.08,1.17,11.38,2.34t10.5,2.15q12.79,2.93,19.73,10.06T1456.56,483Z"/><path class="d" d="M1575.8,459.93q0,26.66-13.67,42.09t-36.62,15.43q-23.14,0-36.77-15.43t-13.62-42.09q0-26.66,13.62-42.14t36.77-15.48q22.95,0,36.62,15.48T1575.8,459.93Zm-18.95,0q0-21.19-8.3-31.49t-23-10.3q-14.94,0-23.19,10.3t-8.25,31.49q0,20.51,8.3,31.1t23.14,10.6q14.65,0,23-10.5T1556.86,459.93Z"/><path class="d" d="M1700.22,459a73.67,73.67,0,0,1-3.86,24.61A55.17,55.17,0,0,1,1686,502a47.4,47.4,0,0,1-15.23,11.57,42.81,42.81,0,0,1-18.26,3.86,53.79,53.79,0,0,1-16.21-2.2,75.68,75.68,0,0,1-13.67-5.91l-1.17,5.08h-17.19v-152h18.36v54.3a76.9,76.9,0,0,1,16.41-10.4,45.68,45.68,0,0,1,19.53-4.05q19.34,0,30.52,14.84T1700.22,459Zm-18.95.49q0-19.53-6.45-29.64T1654,419.79a41.42,41.42,0,0,0-16.21,3.47,67.55,67.55,0,0,0-15.23,8.94v62.5a79.79,79.79,0,0,0,13.43,4.88,54,54,0,0,0,12.74,1.37q15.23,0,23.88-10T1681.27,459.54Z"/><path class="d" d="M1813.59,514.42h-18.26V502.8q-2.44,1.66-6.59,4.64a47.13,47.13,0,0,1-8.06,4.74,54.73,54.73,0,0,1-10.55,3.76,57.15,57.15,0,0,1-14,1.51,34.9,34.9,0,0,1-25-9.77q-10.25-9.76-10.25-24.9,0-12.4,5.32-20.07a35.52,35.52,0,0,1,15.19-12.06,81.93,81.93,0,0,1,23.93-6q14-1.56,30-2.34v-2.83a21.77,21.77,0,0,0-2.2-10.35,16,16,0,0,0-6.3-6.45,26.08,26.08,0,0,0-9.37-3,80.84,80.84,0,0,0-11.43-.78,77.53,77.53,0,0,0-16.11,1.9,125.27,125.27,0,0,0-18.36,5.52h-1V407.68q5.37-1.46,15.53-3.22a117.22,117.22,0,0,1,20-1.76,93.18,93.18,0,0,1,20.07,1.9A39,39,0,0,1,1801,411.1a28.82,28.82,0,0,1,9.38,11.62q3.22,7.13,3.22,17.68Zm-18.26-26.86V457.19q-8.4.49-19.78,1.46a102.4,102.4,0,0,0-18,2.83,29.6,29.6,0,0,0-12.79,7q-4.89,4.74-4.88,13,0,9.38,5.66,14.11t17.29,4.74a41.07,41.07,0,0,0,17.68-3.76A79.63,79.63,0,0,0,1795.33,487.56Z"/><path class="d" d="M1917,425.36h-1a67.4,67.4,0,0,0-8-1.42,82,82,0,0,0-9.13-.44,37.8,37.8,0,0,0-16.41,3.76,75.6,75.6,0,0,0-15.23,9.72v77.44h-18.36V405.34h18.36v16.11q10.94-8.79,19.29-12.45a42,42,0,0,1,17-3.66,69.18,69.18,0,0,1,6.93.24q2.15.24,6.45.93Z"/><path class="e" d="M615.07,1582.29V1603H596v-20.7Zm127.34,1.17v18.36H633.33v-18.36Z"/><path class="e" d="M711,1469.21q14.94,0,24.51,12.35T745,1515.3a80.92,80.92,0,0,1-2.88,22.22,98.83,98.83,0,0,1-6.3,16.94H715.26v-1a73.63,73.63,0,0,0,10.4-19.34,59.82,59.82,0,0,0,3.86-20.41q0-12.11-3.91-18.95t-12.3-6.84q-6.45,0-9.77,3.71t-5.66,14.26q-.88,3.91-2.05,10.21t-2.54,11.47Q689.48,1542,682.11,1548T664,1554a29.63,29.63,0,0,1-12.7-2.78,30.67,30.67,0,0,1-10.64-8.45,40.46,40.46,0,0,1-7.28-13.92,62.2,62.2,0,0,1-2.69-18.9,84.89,84.89,0,0,1,2.39-19.78,74.68,74.68,0,0,1,5.81-16.65h19.63v1a65.73,65.73,0,0,0-8.74,17.09,58.84,58.84,0,0,0-3.56,19.73q0,10.06,3.86,17t11.47,6.93q6.74,0,10.16-4.2t5.57-13.28q1.17-5.08,2.34-11.38t2.15-10.5q2.93-12.79,10.06-19.73T711,1469.21Z"/><path class="e" d="M687.92,1350q26.66,0,42.09,13.67t15.43,36.62q0,23.14-15.43,36.77t-42.09,13.62q-26.66,0-42.14-13.62t-15.48-36.77q0-22.95,15.48-36.62T687.92,1350Zm0,18.95q-21.19,0-31.49,8.3t-10.3,23q0,14.94,10.3,23.19t31.49,8.25q20.51,0,31.1-8.3t10.6-23.14q0-14.65-10.5-23T687.92,1368.92Z"/><path class="e" d="M735.58,1240.89a118.41,118.41,0,0,1,6.84,17.43,61.56,61.56,0,0,1,2.44,17.53,65,65,0,0,1-3.47,21.68,44.28,44.28,0,0,1-10.5,16.89,47.11,47.11,0,0,1-17.77,11q-10.74,3.91-25.1,3.91-26.76,0-42-14.7t-15.23-38.82a65.37,65.37,0,0,1,2.64-18.41,96.36,96.36,0,0,1,6.45-16.55h20.41v1a69.9,69.9,0,0,0-10.06,17.33,47.44,47.44,0,0,0-3.52,17.43q0,15.63,10.5,24.66t30.81,9q19.73,0,30.32-8.84t10.6-24.85a45.87,45.87,0,0,0-1.46-11.33,49.61,49.61,0,0,0-3.81-10.35,82.76,82.76,0,0,0-4.35-7.52q-2.29-3.52-4-5.57v-1Z"/><path class="e" d="M742.41,1126.14v18.36H680.3a106.93,106.93,0,0,0-14.11.88,25.8,25.8,0,0,0-10.3,3.22,14.85,14.85,0,0,0-6.1,7,30.1,30.1,0,0,0-2,11.91,38.12,38.12,0,0,0,3.71,15.72A80.15,80.15,0,0,0,661,1199h81.45v18.36h-152V1199h55a74.63,74.63,0,0,1-11.13-17.77,46.7,46.7,0,0,1-4-18.85q0-17.67,10.64-27t30.66-9.28Z"/><path class="e" d="M687.92,997.82q26.66,0,42.09,13.67t15.43,36.62q0,23.14-15.43,36.77t-42.09,13.62q-26.66,0-42.14-13.62t-15.48-36.77q0-22.95,15.48-36.62T687.92,997.82Zm0,18.95q-21.19,0-31.49,8.3t-10.3,23q0,14.94,10.3,23.19t31.49,8.25q20.51,0,31.1-8.3t10.6-23.14q0-14.65-10.5-23T687.92,1016.77Z"/><path class="e" d="M653.35,901.34v1a67.4,67.4,0,0,0-1.42,8,82,82,0,0,0-.44,9.13,37.8,37.8,0,0,0,3.76,16.41A75.6,75.6,0,0,0,665,951h77.44V969.4H633.33V951h16.11q-8.79-10.94-12.45-19.29a42,42,0,0,1-3.66-17,69.18,69.18,0,0,1,.24-6.93q.24-2.15.93-6.45Z"/><path class="f" d="M592.14,162.9,613.22,217l53.56,117.56,58.05,110.34,57,94.32L835,616.86l57.65,74.91,53.79,62.53,58.3,60.91L1062,869.11l53.41,45.74,57.89,45.27,54,38.73,53,35,57.49,35.11,53.65,30.33,58.15,30.5,57.08,27.82,53.25,24.23,57.73,24.58,53.91,21.51,52.84,19.86,57.34,20.28,53.49,17.86,58,18.26,54.14,16.13,53.1,15,57.59,15.45,53.75,13.69,58.24,14.12,57.18,13.16,53.35,11.72,57.84,12.13,54,10.81,52.94,10.16,57.43,10.54,53.6,9.45.94.16.92.16,1.87.32,3.75.65,22.44,3.81.92.16,6.56,1.11,7.48,1.24.92.16,2.81.48,3.73.62.94.16.94.14,2.81.48.94.14.94.16.92.16"/><path class="g" d="M668.29,162.9l.3,1.17,1.83,6.81L674,184.37l7.26,26.48,14.51,51,29,95.06.89,2.76.91,2.78L728.4,368,732,379l7.13,21.5,14.24,41.6,28.5,77.9L835,648.73l57.65,119.43,53.79,96,58.3,90.31L1062,1031.7l53.41,63.45,57.89,60.94,54,50.62,53,44.59,57.49,43.51,53.65,36.63,58.15,35.95,57.08,32,53.25,27.21,57.73,27,53.91,23.12,52.84,20.94,57.34,21,53.49,18.09,58,18.16,54.14,15.74,53.1,14.39,57.59,14.56,53.75,12.67,58.24,12.86,57.18,11.78,53.35,10.32,57.84,10.53,54,9.24,52.94,8.56,57.43,8.76,53.6,7.73.94.13.92.13,1.87.27,3.75.52,7.48,1,15,2,.92.13,6.56.89,7.48,1,.92.13.94.13,1.87.24,3.73.51.94.13.94.11,4.68.64.92.11"/><path class="h" d="M1133.24,858.09l-13.91-12,71.21-82.63,13.91,12Zm84-95.7-15.68-13.52L1214,734.45,1229.69,748Z"/><path class="h" d="M1245.22,907.4q-9.16,11.8-24.79,11.78T1187.92,906a80.93,80.93,0,0,1-15.78-15.9,98.81,98.81,0,0,1-9.52-15.37l12.64-16.27.77.6a73.59,73.59,0,0,0,8.89,20.07,59.81,59.81,0,0,0,13.75,15.57q9.56,7.43,17.36,8.54t12.95-5.53q4-5.09,3.06-10t-7.79-13.22q-2.55-3.09-6.8-7.88t-7.5-9q-9-11.81-9.22-21.32t6.37-18a29.63,29.63,0,0,1,10-8.32,30.69,30.69,0,0,1,13.2-3.23,40.48,40.48,0,0,1,15.45,2.79A62.22,62.22,0,0,1,1262.3,819a84.86,84.86,0,0,1,14.15,14,74.68,74.68,0,0,1,9.59,14.8l-12,15.5-.77-.6a65.74,65.74,0,0,0-8.14-17.38,58.84,58.84,0,0,0-13.39-14.92q-7.94-6.17-15.79-7.38t-12.51,4.81q-4.13,5.32-2.91,10.6t7.08,12.54q3.29,4,7.55,8.83t7,8.14q8.31,10.16,9.41,20T1245.22,907.4Z"/><path class="h" d="M1359.74,957.7q-14.86,22.14-34.81,27.33t-39-7.6q-19.22-12.9-21.93-33.3t12.14-42.54q14.86-22.14,34.79-27.4t39.15,7.64q19.05,12.79,21.78,33.26T1359.74,957.7ZM1344,947.14q11.81-17.59,10.66-30.78T1341.27,895q-12.41-8.33-25-4.37t-24.4,21.55q-11.43,17-10.44,30.45t13.31,21.7q12.16,8.16,24.95,4.1T1344,947.14Z"/><path class="h" d="M1407.29,1048.05a99.83,99.83,0,0,1-10.85-3.81,77.14,77.14,0,0,1-9.82-4.79q-14.37-8.51-17.27-20.67t7.2-29.22l29.55-49.92-10.67-6.32,7.86-13.28,10.67,6.32,16-27,15.8,9.35-16,27,32.61,19.3-7.86,13.28L1421.89,949l-25.32,42.78q-4.38,7.4-6.5,11.75a21.93,21.93,0,0,0-2.25,9.17,13.15,13.15,0,0,0,2.17,7.93q2.31,3.47,9,7.4a35.94,35.94,0,0,0,8.74,3.64,66.28,66.28,0,0,0,7.17,1.69l.84.5Z"/><path class="h" d="M1511.17,1104l-16.27-8.5,28.75-55.05a107,107,0,0,0,5.75-12.92,25.81,25.81,0,0,0,1.91-10.62,14.86,14.86,0,0,0-3.41-8.67,30.11,30.11,0,0,0-9.63-7.29,38.13,38.13,0,0,0-15.65-4,80.11,80.11,0,0,0-18.32,1.12l-37.7,72.19-16.27-8.5,70.34-134.69,16.27,8.5-25.45,48.74a74.66,74.66,0,0,1,20.91-1.64,46.71,46.71,0,0,1,18.56,5.18q15.67,8.18,19,21.91t-6,31.48Z"/><path class="h" d="M1652.45,1110.92l-73.23-33.12a46.48,46.48,0,0,0-4.46,17.22,32.4,32.4,0,0,0,10.6,26,48.09,48.09,0,0,0,13,8.47,60.77,60.77,0,0,0,22.25,5.19q12.11.6,18.24-1.34l.89.4-8.25,18.24a151.38,151.38,0,0,1-20-1.84,76.86,76.86,0,0,1-19.59-6q-24.74-11.19-32.56-30.86t3.32-44.32q11-24.38,30.81-32.69t41.49,1.51q20.11,9.09,25.7,25.77t-4.19,38.3ZM1642,1090.75q5.87-13.21,2.59-23.37t-16.63-16.2q-13.44-6.08-25-1.76A33.75,33.75,0,0,0,1585,1065Z"/><path class="h" d="M1756.45,1113.34l-.91-.36a67.46,67.46,0,0,0-6.86-4.28,82,82,0,0,0-8.31-3.82,37.81,37.81,0,0,0-16.62-2.63,75.6,75.6,0,0,0-17.76,3.33l-28.9,71.85-17-6.85,40.71-101.2,17,6.85-6,14.95q13.43-4.07,22.54-4.35a42.05,42.05,0,0,1,17.18,3,69.11,69.11,0,0,1,6.34,2.81q1.9,1,5.63,3.27Z"/><path class="h" d="M1893.58,1256.29l-17.35-6,20.33-58.69q2.3-6.64,3.84-13a28.69,28.69,0,0,0,.88-10.75,14.82,14.82,0,0,0-4-8.11q-3.27-3.4-10.74-6a34.24,34.24,0,0,0-15.84-1.41,94.59,94.59,0,0,0-17.79,4.22q-.46,2.22-1.25,5.1t-1.75,5.65l-22.85,66-17.35-6,20.33-58.69q2.36-6.83,3.89-13.17a28.58,28.58,0,0,0,.87-10.71,14.55,14.55,0,0,0-4-8.06q-3.28-3.36-10.76-5.95a34,34,0,0,0-15.47-1.43,90.19,90.19,0,0,0-17.36,4l-26.66,77-17.35-6,35.7-103.08,17.35,6-4,11.44a80.7,80.7,0,0,1,19.84-4.91,42.39,42.39,0,0,1,18.52,2.18q10.52,3.64,16.32,10.61a28.92,28.92,0,0,1,6.68,16.06q13.59-5.22,23.62-6.13a47.09,47.09,0,0,1,19.91,2.5q17,5.88,21.49,19t-1.88,31.54Z"/><path class="i" d="M1154.16,1387.22,1140.61,1375l7.79-8.62q-2.93-.4-8-1a47,47,0,0,1-9.15-1.89,54.64,54.64,0,0,1-10.35-4.28,57.16,57.16,0,0,1-11.38-8.24,34.9,34.9,0,0,1-12-24q-1.06-14.12,9.09-25.35,8.32-9.2,17.4-11.32a35.52,35.52,0,0,1,19.35,1.23,81.89,81.89,0,0,1,21.74,11.62q11.41,8.2,23.81,18.36l1.9-2.1a21.78,21.78,0,0,0,5.31-9.15,16,16,0,0,0-.35-9,26.08,26.08,0,0,0-4.93-8.53,80.87,80.87,0,0,0-8-8.24,77.56,77.56,0,0,0-13.23-9.39,125.29,125.29,0,0,0-17.32-8.22l-.72-.65,12.51-13.84q5,2.51,13.68,8a117.26,117.26,0,0,1,16,12.12,93.15,93.15,0,0,1,13.61,14.87,39,39,0,0,1,6.62,14.74,28.82,28.82,0,0,1-.84,14.91q-2.39,7.45-9.46,15.27Zm4.46-32.17,20.36-22.53q-6.56-5.27-15.65-12.17a102.41,102.41,0,0,0-15.27-10,29.6,29.6,0,0,0-14.17-3.4q-6.8.24-12.36,6.4-6.29,7-5.26,14.27t9.65,15.1a41.08,41.08,0,0,0,15.63,9.06A79.64,79.64,0,0,0,1158.62,1355.06Z"/><path class="i" d="M1258.88,1467.63l-14.71-11,6.83-9.16a66.49,66.49,0,0,1-19.59-1.34,45.53,45.53,0,0,1-17.23-8.11q-15.65-11.69-15.85-30.6t15.75-40.28a71.81,71.81,0,0,1,17.95-17.43,57,57,0,0,1,19.61-8.39,45.29,45.29,0,0,1,36.19,8A58.23,58.23,0,0,1,1299,1359.9a70.85,70.85,0,0,1,7.83,12.85l28.28-37.87,14.71,11Zm1.35-32.5,37.45-50.16a69.06,69.06,0,0,0-7.9-11.62,60.52,60.52,0,0,0-9.49-8.67q-12.37-9.23-25.68-5.76t-25.11,19.27q-11.63,15.57-12.35,27.64t11,20.83a39.58,39.58,0,0,0,14.75,6.69A67,67,0,0,0,1260.24,1435.12Z"/><path class="i" d="M1310.11,1500.61l-15.45-9.91,58.89-91.82,15.45,9.91Zm69.74-106.56-17.43-11.18,10.28-16,17.43,11.18Z"/><path class="i" d="M1419.18,1564.32l-15.93-8.92,5.68-10.14q-2.94.26-8,.83a47.1,47.1,0,0,1-9.34.2,54.58,54.58,0,0,1-11-1.87,57.12,57.12,0,0,1-12.92-5.5,34.9,34.9,0,0,1-17-20.73q-4.18-13.53,3.22-26.74,6.06-10.82,14.45-14.91a35.52,35.52,0,0,1,19.14-3.1,82,82,0,0,1,23.79,6.49q12.95,5.46,27.3,12.6l1.38-2.47a21.77,21.77,0,0,0,3.14-10.11,16,16,0,0,0-2.35-8.7,26.09,26.09,0,0,0-6.7-7.22,80.86,80.86,0,0,0-9.59-6.26,77.58,77.58,0,0,0-15-6.21,125.38,125.38,0,0,0-18.71-4.16l-.85-.48,9.11-16.28q5.4,1.34,15.12,4.77a117.23,117.23,0,0,1,18.33,8.25,93.14,93.14,0,0,1,16.58,11.47,39,39,0,0,1,9.74,12.89,28.82,28.82,0,0,1,2.5,14.72q-.67,7.79-5.82,17Zm-2.81-32.35,14.84-26.5q-7.57-3.68-18-8.38a102.45,102.45,0,0,0-17.1-6.33,29.6,29.6,0,0,0-14.57-.16q-6.58,1.75-10.63,9-4.58,8.18-2,15.08t12.77,12.58a41.06,41.06,0,0,0,17.26,5.35A79.57,79.57,0,0,0,1416.36,1532Z"/><path class="i" d="M1566.82,1573.67a73.67,73.67,0,0,1-13.93,20.65,55.13,55.13,0,0,1-17.2,12.22,47.38,47.38,0,0,1-18.7,4,42.82,42.82,0,0,1-18.17-4.25,53.8,53.8,0,0,1-13.75-8.86,75.68,75.68,0,0,1-9.88-11.15l-3.21,4.1-15.57-7.29,64.43-137.62,16.63,7.79-23,49.17a77,77,0,0,1,19.27-2.46,45.68,45.68,0,0,1,19.41,4.61q17.51,8.2,21.34,26.38T1566.82,1573.67Zm-17.36-7.59q8.28-17.69,6.73-29.58t-14.55-18a41.43,41.43,0,0,0-16.15-3.73,67.52,67.52,0,0,0-17.59,1.63l-26.5,56.6a79.72,79.72,0,0,0,10.09,10.12,54,54,0,0,0,11,6.64q13.8,6.46,25.87,1.06T1549.45,1566.07Z"/><path class="i" d="M1654.13,1667.56l-17-6.65,4.23-10.82q-2.88.66-7.83,1.92a47,47,0,0,1-9.23,1.48,54.62,54.62,0,0,1-11.19-.34,57.17,57.17,0,0,1-13.56-3.68,34.9,34.9,0,0,1-19.73-18.2q-6-12.83-.48-26.93,4.52-11.55,12.27-16.75a35.52,35.52,0,0,1,18.54-5.7,82,82,0,0,1,24.45,3.17q13.57,3.63,28.78,8.74l1-2.64a21.77,21.77,0,0,0,1.72-10.44,16,16,0,0,0-3.52-8.3,26.1,26.1,0,0,0-7.63-6.23,80.84,80.84,0,0,0-10.36-4.89,77.52,77.52,0,0,0-15.7-4.1,125.26,125.26,0,0,0-19.11-1.55l-.91-.36,6.79-17.37q5.53.59,15.63,2.65a117.26,117.26,0,0,1,19.28,5.65,93.16,93.16,0,0,1,18,9.08,39,39,0,0,1,11.41,11.44,28.82,28.82,0,0,1,4.5,14.24q.41,7.81-3.44,17.64Zm-7.23-31.66,11.06-28.29q-8-2.6-19-5.84a102.58,102.58,0,0,0-17.81-3.92,29.61,29.61,0,0,0-14.46,1.84q-6.27,2.63-9.3,10.36-3.41,8.73.14,15.21T1612,1636a41.06,41.06,0,0,0,17.83,2.94A79.6,79.6,0,0,0,1646.9,1635.9Z"/><path class="i" d="M1745.24,1697.57a100,100,0,0,1-11.4-1.5,77.26,77.26,0,0,1-10.59-2.67q-15.81-5.38-21.15-16.68t1-30.07l18.67-54.92-11.74-4,5-14.61,11.74,4,10.09-29.68,17.38,5.91L1744.17,1583l35.87,12.2-5,14.61-35.87-12.2-16,47.06q-2.77,8.14-4,12.84a21.92,21.92,0,0,0-.32,9.43,13.16,13.16,0,0,0,3.75,7.31q3,2.92,10.28,5.4a35.94,35.94,0,0,0,9.3,1.77,66.17,66.17,0,0,0,7.36.18l.92.31Z"/><path d="M2586.69,2055.81h2.82c7.17.51,16.9.77,26.89.77,9.48,0,33.81-.51,35.6-.77h2.56c2,2,2.31,1.79,1,6.92-1.28,4.1-1.28,3.84-2.31,4.87h-5.38c-2.82.26-6.4.51-7.68.51-4.61.77-7.68,2.31-8.2,3.84,0,.51,14.86,128.32,15.11,128.58s74.28-119.62,75.3-121.92a7.23,7.23,0,0,0,1-3.84c0-3.84-3.59-6.4-11.27-7.17-3.59,0-4.61-.77-4.61-2.82a27,27,0,0,1,.51-3.33c1-4.61,1.28-5.63,4.87-5.63,2.82,0,5.63.51,28.17.51,9.22,0,17.67,0,22.28-.51h1.79c1.28,1.28,1.79,1.79,1.79,2.82a30,30,0,0,1-2.31,8.2c-.77.77-1,.77-4.35.77-16.65.77-21.26,7.68-25.1,11.53l-49.43,79.4c-48.41,78.38-46.36,75.82-49.43,77.61l-4.61.26H2630c-2.31,0-4.61-.26-4.61-1.79-.26-.51-4.1-30.74-10-82-7.94-67.11-9.48-81.19-10-82.22-.77-1.79-3.59-2.82-15.88-2.82h-4.35a3.3,3.3,0,0,1-1.79-2.82S2583.36,2059.14,2586.69,2055.81Z"/></svg>